<?xml version="1.0" encoding="UTF-8"?><svg id="Layer_2" xmlns="http://www.w3.org/2000/svg" viewBox="0 0 40.83 4.46"><defs><style>.cls-1{fill:#1d1d1b;}</style></defs><g id="Layer_1-2"><g><rect class="cls-1" width="4.46" height="4.46"/><rect class="cls-1" x="6.29" width=".36" height="4.46"/><rect class="cls-1" x="8.09" width=".36" height="4.46"/><rect class="cls-1" x="9.89" width=".36" height="4.46"/><rect class="cls-1" x="11.69" width=".36" height="4.46"/><rect class="cls-1" x="13.49" width=".36" height="4.46"/><rect class="cls-1" x="15.29" width=".36" height="4.46"/><rect class="cls-1" x="17.08" width=".36" height="4.46"/><rect class="cls-1" x="18.88" width=".36" height="4.46"/><rect class="cls-1" x="20.68" width=".36" height="4.46"/><rect class="cls-1" x="22.48" width=".36" height="4.46"/><rect class="cls-1" x="24.28" width=".36" height="4.46"/><rect class="cls-1" x="26.08" width=".36" height="4.46"/><rect class="cls-1" x="27.88" width=".36" height="4.46"/><rect class="cls-1" x="29.68" width=".36" height="4.46"/><rect class="cls-1" x="31.48" width=".36" height="4.46"/><rect class="cls-1" x="33.28" width=".36" height="4.46"/><rect class="cls-1" x="35.07" width=".36" height="4.46"/><rect class="cls-1" x="36.87" width=".36" height="4.46"/><rect class="cls-1" x="38.67" width=".36" height="4.46"/><rect class="cls-1" x="40.47" width=".36" height="4.46"/></g></g></svg>