<?xml version="1.0" encoding="UTF-8"?><svg id="Layer_2" xmlns="http://www.w3.org/2000/svg" viewBox="0 0 143.01 55.01"><defs><style>.cls-1,.cls-2{fill:#1d1d1b;}.cls-2{font-family:AvenirNext-Regular, 'Avenir Next';font-size:18px;}</style></defs><g id="Layer_1-2"><g><path class="cls-1" d="M10.51,33.54c3.71,13.83,17.92,22.04,31.75,18.33,5.4-1.45,9.93-4.5,13.24-8.5-3.58,5.07-8.88,8.96-15.34,10.69-14.67,3.93-29.75-4.78-33.68-19.45C2.56,19.95,11.26,4.87,25.93,.94c6.46-1.73,13-1.01,18.63,1.59-4.87-1.81-10.32-2.19-15.72-.74C15.02,5.5,6.81,19.72,10.51,33.54Z"/><path class="cls-1" d="M0,43.64C18.08,14.98,47.04,14.48,47.04,14.48c0,0-30.49,1.55-44.35,32.17"/><path class="cls-1" d="M61.45,23.35q0-8.87-8.87-8.87,8.87,0,8.87-8.87,0,8.87,8.87,8.87-8.87,0-8.87,8.87Z"/><text class="cls-2" transform="translate(77.4 22.98)"><tspan x="0" y="0">MOON </tspan><tspan x="0" y="18">BUS </tspan></text></g></g></svg>